<svg width="50" height="50" viewBox="0 0 50 50" fill="none" xmlns="http://www.w3.org/2000/svg">
<path fill-rule="evenodd" clip-rule="evenodd" d="M0 25C0 11.1929 11.1929 0 25 0C38.8071 0 50 11.1929 50 25C50 38.8071 38.8071 50 25 50C11.1929 50 0 38.8071 0 25ZM27.5859 9.22564C29.5796 9.87112 30.9451 11.9512 30.5021 13.9598L29.7082 18.8018C29.6812 18.9922 29.7401 19.0865 29.7819 19.1316C29.8333 19.1872 29.9209 19.2336 30.0424 19.2336H36.4516C38.0001 19.2336 39.3713 19.8325 40.2075 20.9139C41.0466 21.9992 41.2289 23.4191 40.7089 24.8205L36.8816 35.9144C36.5458 37.1403 35.7041 38.1514 34.705 38.8481C33.6942 39.5529 32.4327 40 31.164 40H25.0753C24.4708 40 23.7516 39.9066 23.0808 39.724C22.4671 39.5569 21.7344 39.2726 21.1916 38.7878L17.8514 36.3235C17.6952 36.9759 17.3996 37.5664 16.8903 38.0359C16.056 38.805 14.9111 39 13.7576 39H12.2424C11.0889 39 9.94398 38.805 9.10966 38.0359C8.25152 37.2448 8 36.1101 8 34.9145V20.0855C8 18.8899 8.25152 17.7552 9.10966 16.9641C9.94398 16.195 11.0889 16 12.2424 16H13.7576C14.9111 16 16.056 16.195 16.8903 16.9641C17.1779 17.2292 17.3973 17.5329 17.562 17.8645L22.5667 10.7686L22.5682 10.7665C23.0753 10.0429 23.8905 9.51913 24.7387 9.24125C25.5899 8.96241 26.6149 8.88539 27.5859 9.22564ZM18 21.3602V33.3434L22.8799 36.9438L22.9374 36.9985C23.0299 37.0867 23.3029 37.2435 23.7851 37.3749C24.236 37.4976 24.7184 37.5569 25.0753 37.5569H31.164C31.8182 37.5569 32.5595 37.3169 33.1911 36.8765C33.8218 36.4367 34.2533 35.8612 34.4069 35.2756L34.4182 35.2325L38.2884 24.0142C38.5625 23.2829 38.423 22.7245 38.1436 22.3632C37.8581 21.994 37.3065 21.6767 36.4516 21.6767H30.0424C28.3233 21.6767 26.8975 20.2758 27.1712 18.4501L27.1736 18.4342L27.9811 13.5096L27.99 13.4716C28.1578 12.7521 27.6174 11.8108 26.753 11.5362L26.7304 11.5291L26.7082 11.5211C26.404 11.4124 25.9962 11.4127 25.5721 11.5517C25.1394 11.6934 24.8338 11.9323 24.6998 12.1238L24.6971 12.1277L18.1277 21.442L18 21.3602ZM10.4242 20.0855C10.4242 19.1627 10.6273 18.8599 10.754 18.7431C10.9045 18.6043 11.2747 18.4211 12.2424 18.4211H13.7576C14.7253 18.4211 15.0955 18.6043 15.246 18.7431C15.3727 18.8599 15.5758 19.1627 15.5758 20.0855V34.9145C15.5758 35.8373 15.3727 36.1401 15.246 36.2569C15.0955 36.3957 14.7253 36.5789 13.7576 36.5789H12.2424C11.2747 36.5789 10.9045 36.3957 10.754 36.2569C10.6273 36.1401 10.4242 35.8373 10.4242 34.9145V20.0855Z" fill="#CFC6D2"/>
</svg>
