<svg width="50" height="50" viewBox="0 0 50 50" fill="none" xmlns="http://www.w3.org/2000/svg">
<path fill-rule="evenodd" clip-rule="evenodd" d="M25 0C11.1929 0 0 11.1929 0 25C0 38.8071 11.1929 50 25 50C38.8071 50 50 38.8071 50 25C50 11.1929 38.8071 0 25 0ZM9 25C9 16.1632 16.1632 9 25 9C33.8368 9 41 16.1632 41 25C41 33.8368 33.8368 41 25 41C16.1632 41 9 33.8368 9 25ZM25 11.4615C23.636 11.4615 22.3191 11.6632 21.0776 12.0384C21.1222 12.274 21.0994 12.5209 21.006 12.7497C20.5142 13.9549 20.0969 15.1747 19.7542 16.4046C23.2371 15.8651 26.7629 15.8651 30.2458 16.4046C29.9031 15.1747 29.4858 13.9549 28.994 12.7497C28.8984 12.5154 28.8782 12.2695 28.9223 12.0384C27.6808 11.6632 26.3639 11.4615 25 11.4615ZM13.4032 18.0099C14.5033 16.1887 16.0202 14.6477 17.8217 13.519C17.8676 13.5284 17.9143 13.5355 17.9618 13.5399C17.5672 14.6694 17.2321 15.8094 16.9566 16.9566C15.7631 17.2432 14.5774 17.5943 13.4032 18.0099ZM11.4615 25C11.4615 23.6361 11.6632 22.3192 12.0384 21.0777C12.2695 21.1218 12.5154 21.1016 12.7497 21.006C13.9549 20.5142 15.1747 20.0969 16.4046 19.7542C15.8651 23.2371 15.8651 26.7629 16.4046 30.2458C15.1747 29.9031 13.9549 29.4858 12.7497 28.994C12.5209 28.9006 12.274 28.8778 12.0384 28.9224C11.6632 27.6809 11.4615 26.364 11.4615 25ZM17.8217 36.481C16.0825 35.3914 14.6086 33.9175 13.519 32.1783C13.5284 32.1324 13.5355 32.0857 13.5399 32.0382C14.6694 32.4328 15.8094 32.7679 16.9566 33.0434C17.2321 34.1906 17.5672 35.3306 17.9618 36.4601C17.9143 36.4645 17.8676 36.4716 17.8217 36.481ZM25 38.5385C23.636 38.5385 22.3191 38.3368 21.0776 37.9616C21.1222 37.726 21.0994 37.4791 21.006 37.2503C20.5142 36.0451 20.0969 34.8253 19.7542 33.5954C23.2371 34.1349 26.7629 34.1349 30.2458 33.5954C29.9031 34.8253 29.4858 36.0451 28.994 37.2503C28.8984 37.4846 28.8782 37.7305 28.9223 37.9616C27.6808 38.3368 26.3639 38.5385 25 38.5385ZM36.481 32.1783C35.3523 33.9798 33.8113 35.4967 31.9901 36.5968C32.4057 35.4226 32.7568 34.2369 33.0434 33.0434C34.1906 32.7679 35.3306 32.4328 36.4601 32.0382C36.4645 32.0857 36.4716 32.1324 36.481 32.1783ZM38.5385 25C38.5385 26.364 38.3368 27.6809 37.9616 28.9224C37.726 28.8778 37.4791 28.9006 37.2503 28.994C36.0451 29.4858 34.8253 29.9031 33.5954 30.2458C34.1349 26.7629 34.1349 23.2371 33.5954 19.7542C34.8253 20.0969 36.0451 20.5142 37.2503 21.006C37.4846 21.1016 37.7305 21.1218 37.9616 21.0777C38.3368 22.3192 38.5385 23.6361 38.5385 25ZM31.9901 13.4032C33.8743 14.5413 35.4587 16.1257 36.5968 18.0099C35.4226 17.5943 34.2369 17.2432 33.0434 16.9566C32.7568 15.7631 32.4057 14.5774 31.9901 13.4032ZM30.879 19.121C26.9824 18.3882 23.0176 18.3882 19.121 19.121C18.3882 23.0176 18.3882 26.9824 19.121 30.879C23.0176 31.6118 26.9824 31.6118 30.879 30.879C31.6118 26.9824 31.6118 23.0176 30.879 19.121Z" fill="#CFC6D2"/>
</svg>
