<svg width="50" height="50" viewBox="0 0 50 50" fill="none" xmlns="http://www.w3.org/2000/svg">
<path fill-rule="evenodd" clip-rule="evenodd" d="M25 0C11.1929 0 0 11.1929 0 25C0 38.8071 11.1929 50 25 50C38.8071 50 50 38.8071 50 25C50 11.1929 38.8071 0 25 0ZM28.8765 9.68384C27.744 9.0352 26.3372 8.74619 24.9997 8.75004C23.6662 8.75388 22.2625 9.04933 21.1381 9.71754L12.8122 14.5341L12.8116 14.5344C11.7429 15.152 10.821 16.1484 10.135 17.2492L10.1258 17.2639C10.0578 17.3736 9.99204 17.4842 9.92874 17.5957C9.22525 18.8341 8.75 20.2916 8.75 21.6831V30.8644C8.75 32.2517 9.21619 33.7081 9.9176 34.9494C10.6168 36.1867 11.6189 37.3321 12.8147 38.0148L12.8186 38.0171L21.1427 42.8326L21.1441 42.8334C22.2672 43.4857 23.6698 43.7737 25.0033 43.7737C26.3382 43.7737 27.7441 43.4851 28.8765 42.8365L28.8811 42.8338L37.2139 38.0134C38.3939 37.3316 39.3951 36.188 40.0973 34.9518C40.8008 33.7134 41.276 32.2558 41.276 30.8644V21.656C41.276 20.2687 40.8099 18.8122 40.1084 17.571C39.4092 16.3336 38.407 15.1881 37.2111 14.5054L37.2074 14.5033L28.8811 9.68652L28.8765 9.68384ZM11.25 21.6831C11.25 21.0742 11.4047 20.3756 11.6904 19.6769L23.7437 26.9379V41.1527C23.2276 41.0497 22.7662 40.8845 22.3989 40.6711L22.3968 40.6699L14.0634 35.849L14.0634 35.849L14.0564 35.845C13.3528 35.444 12.6376 34.6813 12.0941 33.7194C11.552 32.7601 11.25 31.7249 11.25 30.8644V21.6831ZM26.2437 41.1572V26.9375L38.3393 19.6434C38.623 20.3425 38.776 21.0435 38.776 21.656V30.8644C38.776 31.7208 38.47 32.7549 37.9235 33.717C37.3757 34.6814 36.6582 35.4471 35.9632 35.8487L35.9626 35.849L27.634 40.6672L27.6319 40.6684C27.2496 40.8869 26.7728 41.0544 26.2437 41.1572ZM35.9697 16.6754C36.3209 16.8755 36.675 17.1659 37.0092 17.5261L24.9934 24.7722L13.0214 17.5601C13.358 17.1949 13.7133 16.9008 14.0628 16.6988L14.0634 16.6984L22.3968 11.8776L22.3968 11.8777L22.4112 11.8691C23.0564 11.4843 23.9931 11.2529 25.0069 11.25C26.0185 11.2471 26.9675 11.4722 27.6318 11.8519L27.634 11.8532L35.9626 16.6714L35.9626 16.6714L35.9697 16.6754Z" fill="#CFC6D2"/>
</svg>
