<svg width="50" height="50" viewBox="0 0 50 50" fill="none" xmlns="http://www.w3.org/2000/svg">
<path fill-rule="evenodd" clip-rule="evenodd" d="M25 0C11.1929 0 0 11.1929 0 25C0 38.8071 11.1929 50 25 50C38.8071 50 50 38.8071 50 25C50 11.1929 38.8071 0 25 0ZM24.7479 11.4401C24.5784 11.4401 24.4345 11.5801 24.4345 11.7451V12.5836C24.4346 12.595 24.4346 12.6063 24.4345 12.6177V13.2702C24.4345 13.4351 24.5784 13.5752 24.7479 13.5752H26.3148C26.4843 13.5752 26.6282 13.4351 26.6282 13.2702V12.6183C26.628 12.6066 26.628 12.5948 26.6282 12.583V11.7451C26.6282 11.5801 26.4843 11.4401 26.3148 11.4401H24.7479ZM29.1293 11.5655C29.0339 10.1362 27.807 9 26.3148 9H24.7479C23.2577 9 22.0322 10.1331 21.9337 11.5597C16.2692 12.6851 11.909 17.3075 11.3743 23.0191C10.0311 23.2282 9 24.365 9 25.7298V27.2549C9 28.7675 10.2664 30 11.8205 30H13.3875C14.9416 30 16.208 28.7675 16.208 27.2549V25.7298C16.208 24.3853 15.2073 23.262 13.8934 23.0291C14.399 18.6334 17.7064 15.0648 22.0394 14.0367C22.3815 15.178 23.4669 16.0153 24.7479 16.0153H26.3148C27.5928 16.0153 28.6762 15.1818 29.0209 14.0446C33.3241 15.0938 36.6038 18.6496 37.1067 23.0291C35.7927 23.262 34.792 24.3852 34.792 25.7298V27.2549C34.792 28.7675 36.0584 30 37.6125 30H39.1795C40.7336 30 42 28.7675 42 27.2549V25.7298C42 24.365 40.9689 23.2282 39.6258 23.0191C39.0933 17.3238 34.7624 12.7152 29.1293 11.5655ZM37.6125 25.4248C37.443 25.4248 37.2991 25.5649 37.2991 25.7298V27.2549C37.2991 27.4199 37.443 27.5599 37.6125 27.5599H39.1795C39.349 27.5599 39.4929 27.4199 39.4929 27.2549V25.7298C39.4929 25.5649 39.349 25.4248 39.1795 25.4248H37.6125ZM11.8205 25.4248C11.651 25.4248 11.5071 25.5649 11.5071 25.7298V27.2549C11.5071 27.4199 11.651 27.5599 11.8205 27.5599H13.3875C13.557 27.5599 13.7009 27.4199 13.7009 27.2549V25.7298C13.7009 25.5649 13.557 25.4248 13.3875 25.4248H11.8205ZM25.5106 22C26.5676 22 27.5543 22.5247 28.2518 23.4309L32.914 29.5038C33.5479 30.324 34.0871 31.2739 33.9882 32.3722C33.8899 33.4647 33.1962 34.3144 32.4014 35.038L30.2931 36.9647L30.766 39.1076C30.9854 40.1464 30.7176 41.1592 30.0529 41.899C29.4006 42.625 28.4505 43 27.4296 43H23.5762C21.6201 43 19.7492 41.2981 20.2428 39.0941L20.2434 39.0914L20.7152 36.953L18.6363 35.0532C17.7977 34.3418 17.0937 33.4877 17.0085 32.3725C16.9245 31.273 17.4776 30.3182 18.1057 29.5056L22.7683 23.4321C23.4658 22.5259 24.4535 22 25.5106 22ZM23.0395 37.7883L22.6285 39.6512L22.6274 39.6562C22.5915 39.816 22.6282 39.9925 22.7829 40.1636C22.9429 40.3404 23.2191 40.4883 23.5762 40.4883H27.4296C27.8767 40.4883 28.1346 40.3295 28.2545 40.1961C28.3614 40.0771 28.4299 39.906 28.3758 39.6444L27.9663 37.7883H23.0395ZM22.5604 35.2766L20.2456 33.1612C20.2336 33.1502 20.2214 33.1395 20.2089 33.129C19.5115 32.5406 19.4535 32.2533 19.4476 32.1761C19.4399 32.0756 19.4746 31.7751 20.0234 31.0654L24.2796 25.5213V27.8514C24.2796 28.545 24.8273 29.1073 25.5029 29.1073C26.1785 29.1073 26.7262 28.545 26.7262 27.8514V25.5014L30.9951 31.062L30.9977 31.0654C31.5407 31.7676 31.5601 32.0512 31.552 32.1411C31.5433 32.2373 31.4654 32.5333 30.7773 33.1595L28.4607 35.2766H22.5604Z" fill="#CFC6D2"/>
</svg>
