<svg width="50" height="50" viewBox="0 0 50 50" fill="none" xmlns="http://www.w3.org/2000/svg">
<path fill-rule="evenodd" clip-rule="evenodd" d="M0 25C0 11.1929 11.1929 0 25 0C38.8071 0 50 11.1929 50 25C50 38.8071 38.8071 50 25 50C11.1929 50 0 38.8071 0 25ZM16.1791 20.3685C16.6564 20.8598 16.6564 21.6563 16.1791 22.1476L11.9507 26.5L16.1791 30.8524C16.6564 31.3437 16.6564 32.1402 16.1791 32.6315C15.7017 33.1228 14.9279 33.1228 14.4506 32.6315L9.35798 27.3896C8.88067 26.8983 8.88067 26.1017 9.35798 25.6104L14.4506 20.3685C14.9279 19.8772 15.7017 19.8772 16.1791 20.3685ZM34.8209 20.3685C35.2983 19.8772 36.0721 19.8772 36.5494 20.3685L41.642 25.6104C42.1193 26.1017 42.1193 26.8983 41.642 27.3896L36.5494 32.6315C36.0721 33.1228 35.2983 33.1228 34.8209 32.6315C34.3436 32.1402 34.3436 31.3437 34.8209 30.8524L39.0493 26.5L34.8209 22.1476C34.3436 21.6563 34.3436 20.8598 34.8209 20.3685ZM28.9077 20.6676C29.1549 20.0607 28.8884 19.3577 28.3123 19.0972C27.7363 18.8368 27.0689 19.1176 26.8216 19.7244L22.0923 31.3324C21.8451 31.9393 22.1116 32.6423 22.6877 32.9028C23.2637 33.1632 23.9311 32.8824 24.1784 32.2756L28.9077 20.6676Z" fill="#CFC6D2"/>
</svg>
