<svg width="417" height="901" viewBox="0 0 417 901" fill="none" xmlns="http://www.w3.org/2000/svg">
<g clip-path="url(#clip0_19_1163)">
<path fill-rule="evenodd" clip-rule="evenodd" d="M190.607 851C191.953 851.027 193.024 852.212 193 853.648C192.449 885.932 190.023 902.614 188.777 907.132C188.397 908.51 187.042 909.299 185.751 908.894C184.459 908.488 183.72 907.043 184.1 905.665C185.145 901.872 187.575 885.8 188.125 853.553C188.149 852.117 189.261 850.974 190.607 851Z" fill="#E39F52"/>
<path d="M226.206 853C208.559 861.25 206.353 877 199 891.25C217.382 891.25 222.529 894.25 240.912 888.25C255.618 883.45 270.324 857.75 274 847C262.971 847.75 243.853 844.75 226.206 853Z" fill="#E39F52"/>
<path d="M154 805.394C154 814.242 156.244 843 189.161 843C220.581 843 225.337 819.754 228.81 808.343C233.299 793.596 230.306 770 225.07 770C219.833 770 218.337 798.02 213.1 798.02C207.863 798.02 211.604 770 205.619 770C199.634 770 198.886 798.02 193.649 798.02C188.413 798.02 183.924 772.212 178.687 772.212C173.451 772.212 176.443 805.394 172.703 805.394C168.962 805.394 161.481 784.01 157.741 784.01C154 784.01 154 798.716 154 805.393V805.394Z" fill="#E9A59C"/>
<path d="M13.8014 800.601C4.17144 809.479 -13.5632 842.7 -2.46937 853.779C5.66611 858.949 6.40564 846.393 18.239 840.485C30.0724 834.576 43.385 834.576 44.8642 829.406C46.3433 824.236 35.2495 823.497 35.2495 819.804C35.2495 816.112 45.6037 811.68 43.385 807.987C41.1662 804.294 31.5516 810.203 28.5932 806.51C25.6349 802.817 36.7287 796.17 33.0308 791.739C29.3328 787.307 23.416 791.738 13.8014 800.601Z" fill="#CFC6D2"/>
<path d="M13.0628 886.607C1.41931 897.105 3.45221 909.537 1.16331 922.081C15.3287 917.637 20.006 918.659 32.7493 909.682C42.944 902.501 48.1854 879.53 48.4707 870.52C40.1492 873.753 24.7063 876.108 13.0628 886.607Z" fill="#E7736E"/>
<path d="M329.173 838.654C336.426 849.428 345.92 885.561 332.686 893.722C323.657 896.854 325.819 884.561 315.761 876.15C305.704 867.739 292.867 864.695 292.624 859.365C292.382 854.034 303.248 855.858 304.094 852.292C304.94 848.726 295.97 842.08 298.955 839.021C301.94 835.963 309.858 843.867 313.556 840.977C317.255 838.088 308.079 829.133 312.66 825.699C317.24 822.266 321.931 827.898 329.173 838.654Z" fill="#CFC6D2"/>
<path d="M349.748 916.103C339.621 925.768 341.75 936.813 340.025 948.067C352.556 943.742 356.756 944.536 367.903 936.202C376.821 929.534 380.918 908.899 380.945 900.849C373.599 903.945 359.875 906.438 349.748 916.103Z" fill="#E9A59C"/>
<path d="M308.668 922.731C320.777 935.829 317.19 949.704 318.488 964.152C302.897 957.655 297.493 958.33 283.981 946.844C273.172 937.655 269.605 911.088 270.212 900.849C279.307 905.371 296.56 909.634 308.668 922.731Z" fill="#E9A59C"/>
<path fill-rule="evenodd" clip-rule="evenodd" d="M334.042 900.413C332.598 900.516 331.512 901.77 331.616 903.214C332.452 914.865 330.385 925.039 327.996 935.824C327.863 936.425 327.729 937.027 327.595 937.632C325.325 947.839 322.917 958.666 322.84 971.437C322.832 972.884 323.998 974.064 325.445 974.073C326.892 974.081 328.072 972.915 328.08 971.468C328.154 959.273 330.45 948.942 332.732 938.673C332.859 938.101 332.986 937.529 333.113 936.957C335.502 926.165 337.739 915.326 336.843 902.838C336.739 901.395 335.485 900.309 334.042 900.413Z" fill="#E9A59C"/>
<path d="M24.3391 763.048C33.2028 775.456 51.6181 766.007 58.3283 760.951C58.3283 760.951 59.6306 766.088 59.3097 780.83C59.217 785.083 61.3306 791.943 70.4026 791.006C81.7426 789.834 86.1688 781.418 90.4714 778.675C94.7741 775.931 100.367 778.89 106.114 774.759C110.712 771.455 109.199 763.005 107.867 759.192C111.985 764.957 120.498 763.723 131.838 762.551C143.178 761.379 147.573 754.382 149.141 747.323C150.709 740.264 145.332 727.379 136.819 728.612C128.307 729.846 126.955 726.979 125.603 724.112C124.251 721.245 131.381 718.563 128.801 707.158C126.22 695.753 117.831 691.314 109.38 689.711C102.619 688.429 97.9373 695.61 96.4413 699.36C95.1511 693.657 84.089 682.067 71.3662 681.79C58.6434 681.513 59.8411 691.47 56.9519 694.244C54.0628 697.019 46.9947 696.865 46.8403 703.955C46.7168 709.627 53.1883 715.438 56.4559 716.928C49.8692 716.312 32.5819 714.745 29.5041 720.597C25.0779 729.013 30.5824 736.226 29.074 740.453C27.5654 744.681 16.1009 751.516 24.3391 763.048Z" fill="#E39F52"/>
<path d="M80.5206 721.819C86.7006 720.092 93.224 724.107 95.0911 730.787C96.9582 737.467 93.462 744.283 87.282 746.01C81.102 747.737 74.5785 743.722 72.7114 737.042C70.8443 730.362 74.3406 723.547 80.5206 721.819Z" fill="#FEF2E6"/>
<path d="M266.344 813.613C280.671 818.836 290.517 800.63 293.193 792.666C293.193 792.666 297.172 796.167 305.242 808.507C307.571 812.068 313.193 816.531 320.146 810.629C328.837 803.251 327.729 793.807 329.727 789.111C331.724 784.415 338.011 783.694 340.415 777.037C342.339 771.712 336.313 765.598 333.06 763.206C339.715 765.633 346.039 759.802 354.73 752.424C363.421 745.045 363.09 736.789 360.392 730.08C357.694 723.371 345.974 715.783 339.65 721.614C333.326 727.444 330.59 725.844 327.854 724.244C325.118 722.643 329.482 716.4 320.905 708.451C312.329 700.503 302.899 701.585 295.023 705.042C288.721 707.807 288.919 716.376 289.806 720.316C285.518 716.342 269.84 713.036 259.19 720.001C248.539 726.966 255.157 734.502 254.342 738.424C253.528 742.345 247.611 746.215 251.492 752.15C254.597 756.898 263.221 758.033 266.759 757.414C260.977 760.63 245.833 769.112 246.603 775.679C247.71 785.123 256.329 787.96 257.475 792.299C258.621 796.639 253.029 808.759 266.344 813.613Z" fill="#E7736E"/>
<path d="M289.373 747.842C293.494 742.923 301.144 742.547 306.461 747.001C311.778 751.455 312.748 759.053 308.627 763.972C304.507 768.891 296.856 769.268 291.539 764.814C286.222 760.36 285.252 752.761 289.373 747.842Z" fill="#FEF2E6"/>
<path fill-rule="evenodd" clip-rule="evenodd" d="M193.429 684.009C191.976 684.124 190.892 685.393 191.009 686.841C191.53 693.336 191.869 699.057 192.19 704.468C192.774 714.317 193.297 723.139 194.745 733.724C194.942 735.164 196.273 736.172 197.717 735.976C199.161 735.779 200.172 734.453 199.975 733.013C198.552 722.608 198.05 714.119 197.477 704.424C197.156 698.986 196.812 693.169 196.27 686.421C196.154 684.973 194.882 683.893 193.429 684.009Z" fill="#E9A59C"/>
<path fill-rule="evenodd" clip-rule="evenodd" d="M165.836 704.105C164.487 704.509 163.71 705.969 164.101 707.364C166.173 714.754 167.806 719.902 169.262 724.488C171.901 732.804 173.954 739.273 176.967 753.916C177.26 755.337 178.611 756.244 179.985 755.942C181.359 755.639 182.236 754.242 181.944 752.821C178.879 737.929 176.711 731.086 174.017 722.584C172.567 718.008 170.964 712.951 168.988 705.899C168.597 704.504 167.186 703.7 165.836 704.105Z" fill="#E9A59C"/>
<path fill-rule="evenodd" clip-rule="evenodd" d="M225.654 692C224.358 692 223.308 693.163 223.308 694.598C223.308 703.253 222.821 709.009 222.163 715.932C222.107 716.516 222.051 717.107 221.993 717.709C221.363 724.286 220.613 732.115 220.004 744.258C219.932 745.691 220.922 746.916 222.216 746.996C223.51 747.076 224.617 745.979 224.689 744.546C225.291 732.535 226.031 724.815 226.66 718.254C226.717 717.652 226.774 717.06 226.829 716.476C227.494 709.483 228 703.52 228 694.598C228 693.163 226.95 692 225.654 692Z" fill="#E9A59C"/>
<path d="M172.764 686.792C174.012 692.366 169.859 698.041 163.489 699.467C157.118 700.893 150.942 697.53 149.695 691.956C148.447 686.382 152.599 680.707 158.97 679.281C165.34 677.855 171.516 681.218 172.764 686.792Z" fill="#E39F52"/>
<path d="M205 666C205 672.627 199.851 678 193.5 678C187.149 678 182 672.627 182 666C182 659.373 187.149 654 193.5 654C199.851 654 205 659.373 205 666Z" fill="#E39F52"/>
<path d="M241.481 678.916C238.919 684.433 232.042 686.677 226.122 683.927C220.201 681.177 217.478 674.476 220.041 668.958C222.603 663.441 229.48 661.198 235.401 663.947C241.321 666.697 244.044 673.399 241.481 678.916Z" fill="#E39F52"/>
<path fill-rule="evenodd" clip-rule="evenodd" d="M99.8834 831.087C101.232 830.719 102.613 831.554 102.968 832.952C104.844 840.341 105.188 850.06 104.919 858.798C104.649 867.577 103.749 875.643 103.011 879.85C102.761 881.272 101.447 882.216 100.074 881.957C98.702 881.699 97.7918 880.336 98.0413 878.913C98.7275 875.001 99.6073 867.197 99.8711 858.631C100.136 850.023 99.7683 840.92 98.0838 834.285C97.7288 832.887 98.5345 831.455 99.8834 831.087Z" fill="#CFC6D2"/>
<path d="M118.794 831.545C110.641 838.896 112.065 847.601 110.462 856.384C120.381 853.273 123.656 853.988 132.579 847.703C139.717 842.674 143.387 826.59 143.587 820.281C137.76 822.544 126.947 824.193 118.794 831.545Z" fill="#CFC6D2"/>
<path d="M85.0901 843.008C94.761 851.729 93.0725 862.055 94.9737 872.473C83.2081 868.782 79.3232 869.631 68.7388 862.175C60.2712 856.21 55.9178 837.131 55.6808 829.647C62.5925 832.332 75.4192 834.288 85.0901 843.008Z" fill="#CFC6D2"/>
<path d="M105.039 808.016C106.696 813.483 102.658 819.545 96.0201 821.557C89.3823 823.569 82.658 820.769 81.001 815.302C79.344 809.836 83.3818 803.773 90.0196 801.761C96.6574 799.749 103.382 802.55 105.039 808.016Z" fill="#E7736E"/>
<path fill-rule="evenodd" clip-rule="evenodd" d="M124.393 613C123.047 613.027 121.976 614.233 122 615.694C122.551 648.534 124.977 665.504 126.223 670.1C126.603 671.502 127.958 672.304 129.249 671.892C130.541 671.48 131.28 670.009 130.9 668.607C129.855 664.749 127.425 648.4 126.875 615.598C126.851 614.137 125.739 612.974 124.393 613Z" fill="#E9A59C"/>
<path d="M88.7941 616.867C106.441 624.933 108.647 640.333 116 654.267C97.6176 654.267 92.4706 657.2 74.0882 651.333C59.3824 646.64 44.6765 621.511 41 611C52.0294 611.733 71.1471 608.8 88.7941 616.867Z" fill="#E9A59C"/>
<path d="M161 568.394C161 577.242 158.756 606 125.839 606C94.419 606 89.6626 582.754 86.1898 571.343C81.7012 556.596 84.6936 533 89.9303 533C95.167 533 96.6632 561.02 101.9 561.02C107.137 561.02 103.396 533 109.381 533C115.366 533 116.114 561.02 121.351 561.02C126.587 561.02 131.076 535.212 136.313 535.212C141.549 535.212 138.557 568.394 142.297 568.394C146.038 568.394 153.519 547.01 157.259 547.01C161 547.01 161 561.716 161 568.393V568.394Z" fill="#E39F52"/>
<path d="M301.199 563.601C310.828 572.479 328.563 605.7 317.469 616.779C309.334 621.949 308.594 609.393 296.761 603.485C284.928 597.576 271.615 597.576 270.136 592.406C268.657 587.236 279.75 586.497 279.75 582.804C279.75 579.112 269.396 574.68 271.615 570.987C273.834 567.294 283.448 573.203 286.407 569.51C289.365 565.817 278.271 559.17 281.969 554.739C285.667 550.307 291.584 554.738 301.199 563.601Z" fill="#CFC6D2"/>
<path d="M301.937 649.748C313.581 660.247 311.548 672.679 313.837 685.222C299.671 680.778 294.994 681.801 282.251 672.824C272.056 665.643 266.815 642.672 266.529 633.662C274.851 636.894 290.294 639.249 301.937 649.748Z" fill="#E9A59C"/>
<path d="M353.056 651.111C338.221 664.488 340.811 680.329 337.895 696.31C355.943 690.648 361.903 691.951 378.14 680.513C391.129 671.363 397.808 642.095 398.171 630.615C387.568 634.734 367.892 637.735 353.056 651.111Z" fill="#E9A59C"/>
<path d="M337.61 620.825C329.964 632.195 334.323 642.304 335.042 653.424C346.11 646.653 350.292 646.528 359.193 636.216C366.314 627.965 365.887 607.378 364.219 599.679C357.849 604.184 345.255 609.455 337.61 620.825Z" fill="#E9A59C"/>
<path fill-rule="evenodd" clip-rule="evenodd" d="M319.922 623.123C318.476 623.561 317.673 625.049 318.127 626.445C322.251 639.115 322.643 650.908 322.837 663.419C322.847 664.114 322.857 664.811 322.868 665.511C323.04 677.356 323.222 689.886 326.582 703.946C326.922 705.371 328.396 706.261 329.872 705.932C331.349 705.603 332.27 704.18 331.929 702.754C328.705 689.261 328.528 677.245 328.354 665.336C328.344 664.671 328.334 664.005 328.324 663.34C328.131 650.822 327.749 638.335 323.363 624.856C322.908 623.46 321.368 622.684 319.922 623.123Z" fill="#E9A59C"/>
<path d="M-14.1725 601.796C-21.4257 612.57 -30.9197 648.703 -17.6856 656.864C-8.65706 659.996 -10.8189 647.703 -0.761301 639.292C9.2963 630.881 22.1331 627.837 22.3756 622.507C22.6182 617.176 11.7517 619 10.9061 615.434C10.0606 611.868 19.0301 605.222 16.0451 602.163C13.06 599.105 5.14187 607.009 1.44368 604.119C-2.25452 601.23 6.92083 592.275 2.34036 588.841C-2.2401 585.408 -6.93081 591.04 -14.1725 601.796Z" fill="#CFC6D2"/>
<path d="M6.33164 685.873C-5.77649 698.97 -2.18964 712.846 -3.48792 727.294C12.1026 720.796 17.5076 721.472 31.019 709.985C41.8282 700.796 45.395 674.229 44.788 663.991C35.6935 668.513 18.4398 672.776 6.33164 685.873Z" fill="#E7736E"/>
<path fill-rule="evenodd" clip-rule="evenodd" d="M-19.0415 663.554C-17.5981 663.658 -16.5121 664.912 -16.6157 666.355C-17.4523 678.007 -15.3845 688.18 -12.9962 698.966C-12.8633 699.566 -12.7293 700.169 -12.5948 700.773C-10.325 710.98 -7.91725 721.807 -7.84019 734.578C-7.83146 736.025 -8.99743 737.205 -10.4445 737.214C-11.8915 737.223 -13.0716 736.057 -13.0803 734.61C-13.1539 722.415 -15.4498 712.083 -17.7317 701.814C-17.8588 701.242 -17.9859 700.671 -18.1125 700.099C-20.5022 689.306 -22.7391 678.468 -21.8425 665.98C-21.7389 664.537 -20.4848 663.451 -19.0415 663.554Z" fill="#E7736E"/>
<path d="M290.661 526.19C281.797 538.597 263.382 529.148 256.672 524.092C256.672 524.092 255.369 529.23 255.69 543.971C255.783 548.225 253.669 555.085 244.597 554.147C233.257 552.975 228.831 544.56 224.529 541.816C220.226 539.073 214.633 542.032 208.886 537.901C204.288 534.596 205.801 526.146 207.133 522.334C203.015 528.098 194.502 526.865 183.162 525.693C171.822 524.521 167.427 517.524 165.859 510.465C164.291 503.405 169.668 490.52 178.181 491.754C186.693 492.987 188.045 490.12 189.397 487.254C190.749 484.387 183.619 481.705 186.199 470.299C188.78 458.894 197.169 454.455 205.62 452.853C212.381 451.57 217.063 458.751 218.559 462.501C219.849 456.799 230.911 445.209 243.634 444.932C256.357 444.655 255.159 454.611 258.048 457.386C260.937 460.16 268.005 460.006 268.16 467.096C268.283 472.768 261.812 478.58 258.544 480.07C265.131 479.453 282.418 477.887 285.496 483.739C289.922 492.154 284.418 499.367 285.926 503.594C287.435 507.822 298.899 514.657 290.661 526.19Z" fill="#E9A59C"/>
<path d="M234.479 484.961C228.299 483.233 221.776 487.248 219.909 493.928C218.042 500.608 221.538 507.424 227.718 509.151C233.898 510.879 240.421 506.864 242.289 500.184C244.156 493.504 240.659 486.688 234.479 484.961Z" fill="#FEF2E6"/>
<path d="M48.6555 576.755C34.3293 581.977 24.4828 563.771 21.8066 555.807C21.8066 555.807 17.8276 559.308 9.75764 571.649C7.42899 575.21 1.80704 579.673 -5.14569 573.77C-13.8366 566.392 -12.7292 556.948 -14.7268 552.253C-16.7245 547.557 -23.0106 546.835 -25.4154 540.179C-27.3392 534.853 -21.3133 528.739 -18.0598 526.347C-24.7151 528.774 -31.0392 522.943 -39.7299 515.565C-48.4207 508.187 -48.0899 499.93 -45.3919 493.221C-42.694 486.512 -30.974 478.925 -24.6499 484.755C-18.3258 490.585 -15.5899 488.985 -12.8539 487.385C-10.118 485.785 -14.4825 479.541 -5.90552 471.593C2.6714 463.644 12.1006 464.727 19.9772 468.183C26.2785 470.948 26.0806 479.518 25.1939 483.457C29.4824 479.483 45.1597 476.178 55.8102 483.143C66.4608 490.108 59.8434 497.643 60.6578 501.565C61.4721 505.487 67.389 509.356 63.5077 515.291C60.4026 520.04 51.779 521.174 48.2414 520.555C54.0227 523.771 69.1672 532.253 68.3972 538.82C67.2898 548.264 58.6712 551.101 57.5254 555.441C56.3795 559.781 61.9709 571.901 48.6555 576.755Z" fill="#CFC6D2"/>
<path d="M25.6271 510.984C21.5063 506.065 13.8556 505.688 8.53867 510.142C3.22173 514.596 2.252 522.194 6.37271 527.113C10.4934 532.032 18.1442 532.409 23.4611 527.955C28.778 523.501 29.7478 515.902 25.6271 510.984Z" fill="#FEF2E6"/>
<path fill-rule="evenodd" clip-rule="evenodd" d="M370.841 533.008C372.132 533.122 373.096 534.366 372.992 535.786C372.529 542.156 372.228 547.767 371.942 553.075C371.423 562.734 370.958 571.386 369.671 581.768C369.496 583.18 368.313 584.169 367.029 583.976C365.746 583.783 364.847 582.483 365.022 581.07C366.287 570.865 366.733 562.54 367.242 553.031C367.528 547.698 367.834 541.993 368.315 535.375C368.419 533.954 369.549 532.895 370.841 533.008Z" fill="#E39F52"/>
<path fill-rule="evenodd" clip-rule="evenodd" d="M399.062 553.103C400.486 553.5 401.306 554.931 400.893 556.3C398.707 563.547 396.982 568.596 395.446 573.094C392.66 581.251 390.493 587.595 387.312 601.956C387.003 603.35 385.577 604.24 384.127 603.943C382.676 603.646 381.751 602.276 382.059 600.882C385.295 586.276 387.583 579.566 390.427 571.227C391.957 566.738 393.649 561.779 395.735 554.863C396.148 553.494 397.637 552.706 399.062 553.103Z" fill="#E39F52"/>
<path fill-rule="evenodd" clip-rule="evenodd" d="M338.639 540C340.097 540 341.279 541.163 341.279 542.598C341.279 551.253 341.826 557.009 342.567 563.932C342.629 564.516 342.693 565.107 342.758 565.709C343.467 572.286 344.31 580.115 344.996 592.258C345.077 593.691 343.962 594.916 342.507 594.996C341.051 595.076 339.806 593.979 339.725 592.546C339.047 580.535 338.215 572.815 337.508 566.254C337.443 565.652 337.379 565.06 337.317 564.476C336.569 557.483 336 551.52 336 542.598C336 541.163 337.182 540 338.639 540Z" fill="#E39F52"/>
<path d="M391.671 534.825C390.424 540.399 394.576 546.074 400.947 547.5C407.317 548.926 413.493 545.563 414.741 539.989C415.988 534.415 411.836 528.74 405.465 527.314C399.095 525.888 392.919 529.251 391.671 534.825Z" fill="#E7736E"/>
<path d="M360 514.5C360 520.851 365.149 526 371.5 526C377.851 526 383 520.851 383 514.5C383 508.149 377.851 503 371.5 503C365.149 503 360 508.149 360 514.5Z" fill="#E7736E"/>
<path d="M322.954 526.949C325.516 532.466 332.393 534.71 338.314 531.96C344.234 529.21 346.957 522.509 344.395 516.992C341.832 511.474 334.955 509.231 329.035 511.981C323.114 514.73 320.391 521.432 322.954 526.949Z" fill="#E7736E"/>
<path fill-rule="evenodd" clip-rule="evenodd" d="M121.571 448.009C123.024 448.124 124.108 449.393 123.991 450.841C123.47 457.336 123.131 463.057 122.81 468.468C122.226 478.317 121.703 487.139 120.255 497.724C120.058 499.164 118.727 500.172 117.283 499.976C115.839 499.779 114.828 498.453 115.025 497.013C116.448 486.608 116.95 478.119 117.523 468.424C117.844 462.986 118.188 457.169 118.73 450.421C118.846 448.973 120.118 447.893 121.571 448.009Z" fill="#E39F52"/>
<path fill-rule="evenodd" clip-rule="evenodd" d="M149.164 467.105C150.513 467.509 151.29 468.969 150.899 470.364C148.827 477.754 147.194 482.902 145.738 487.488C143.099 495.804 141.046 502.273 138.033 516.916C137.74 518.337 136.389 519.244 135.015 518.942C133.641 518.639 132.764 517.242 133.056 515.821C136.121 500.929 138.289 494.086 140.983 485.584C142.433 481.008 144.036 475.951 146.012 468.899C146.403 467.504 147.814 466.7 149.164 467.105Z" fill="#E39F52"/>
<path fill-rule="evenodd" clip-rule="evenodd" d="M89.3462 455C90.6419 455 91.6923 456.184 91.6923 457.645C91.6923 466.458 92.1789 472.318 92.8371 479.367C92.8925 479.961 92.9492 480.564 93.0069 481.176C93.637 487.873 94.387 495.844 94.9963 508.208C95.0682 509.667 94.0777 510.915 92.7839 510.996C91.4902 511.077 90.3831 509.96 90.3112 508.502C89.7085 496.272 88.9689 488.411 88.3404 481.731C88.2828 481.119 88.2261 480.516 88.1705 479.921C87.5057 472.801 87 466.729 87 457.645C87 456.184 88.0504 455 89.3462 455Z" fill="#E39F52"/>
<path d="M142.236 449.933C140.988 455.507 145.141 461.182 151.511 462.608C157.882 464.034 164.058 460.671 165.305 455.097C166.553 449.523 162.401 443.848 156.03 442.422C149.66 440.996 143.484 444.359 142.236 449.933Z" fill="#E7736E"/>
<path d="M110 430C110 436.627 115.149 442 121.5 442C127.851 442 133 436.627 133 430C133 423.373 127.851 418 121.5 418C115.149 418 110 423.373 110 430Z" fill="#E7736E"/>
<path d="M73.5185 442.057C76.0809 447.575 82.9577 449.818 88.8784 447.068C94.7992 444.319 97.5217 437.617 94.9593 432.1C92.397 426.583 85.5201 424.339 79.5994 427.089C73.6787 429.839 70.9562 436.54 73.5185 442.057Z" fill="#E7736E"/>
<path fill-rule="evenodd" clip-rule="evenodd" d="M215.117 594.087C213.768 593.719 212.387 594.554 212.032 595.952C210.156 603.341 209.812 613.06 210.081 621.798C210.351 630.577 211.251 638.643 211.989 642.85C212.239 644.272 213.553 645.216 214.926 644.957C216.298 644.699 217.208 643.336 216.959 641.913C216.272 638.001 215.393 630.197 215.129 621.631C214.864 613.023 215.232 603.92 216.916 597.285C217.271 595.887 216.465 594.455 215.117 594.087Z" fill="#CFC6D2"/>
<path d="M196.206 594.687C204.359 602.038 202.935 610.743 204.538 619.526C194.619 616.415 191.344 617.13 182.421 610.845C175.283 605.816 171.612 589.732 171.413 583.423C177.24 585.686 188.053 587.335 196.206 594.687Z" fill="#CFC6D2"/>
<path d="M229.91 606.15C220.239 614.87 221.927 625.196 220.026 635.614C231.792 631.923 235.677 632.772 246.261 625.317C254.729 619.352 259.082 600.273 259.319 592.789C252.407 595.474 239.581 597.43 229.91 606.15Z" fill="#CFC6D2"/>
<path d="M209.961 571.158C208.304 576.624 212.342 582.687 218.98 584.699C225.618 586.711 232.342 583.91 233.999 578.444C235.656 572.978 231.618 566.915 224.98 564.903C218.342 562.891 211.618 565.691 209.961 571.158Z" fill="#E7736E"/>
<path fill-rule="evenodd" clip-rule="evenodd" d="M190.607 373C191.953 373.027 193.024 374.254 193 375.739C192.449 409.136 190.023 426.394 188.777 431.068C188.397 432.494 187.042 433.309 185.751 432.89C184.459 432.471 183.72 430.975 184.1 429.55C185.145 425.626 187.575 409 188.125 375.642C188.149 374.156 189.261 372.973 190.607 373Z" fill="#E39F52"/>
<path d="M226.206 376.867C208.559 384.933 206.353 400.333 199 414.267C217.382 414.267 222.529 417.2 240.912 411.333C255.618 406.64 270.324 381.511 274 371C262.971 371.733 243.853 368.8 226.206 376.867Z" fill="#E39F52"/>
<path d="M154 328.394C154 337.242 156.244 366 189.161 366C220.581 366 225.337 342.754 228.81 331.343C233.299 316.596 230.306 293 225.07 293C219.833 293 218.337 321.02 213.1 321.02C207.863 321.02 211.604 293 205.619 293C199.634 293 198.886 321.02 193.649 321.02C188.413 321.02 183.924 295.212 178.687 295.212C173.451 295.212 176.443 328.394 172.703 328.394C168.962 328.394 161.481 307.01 157.741 307.01C154 307.01 154 321.716 154 328.393V328.394Z" fill="#E9A59C"/>
<path d="M13.8014 323.601C4.17144 332.479 -13.5632 365.7 -2.46937 376.779C5.66611 381.949 6.40564 369.393 18.239 363.485C30.0724 357.576 43.385 357.576 44.8642 352.406C46.3433 347.236 35.2495 346.497 35.2495 342.804C35.2495 339.112 45.6037 334.68 43.385 330.987C41.1662 327.294 31.5516 333.203 28.5932 329.51C25.6349 325.817 36.7287 319.17 33.0308 314.739C29.3328 310.307 23.416 314.738 13.8014 323.601Z" fill="#CFC6D2"/>
<path d="M13.0628 409.745C1.41931 420.244 3.45221 432.676 1.16331 445.219C15.3287 440.776 20.006 441.798 32.7493 432.821C42.944 425.64 48.1854 402.669 48.4707 393.659C40.1492 396.892 24.7063 399.247 13.0628 409.745Z" fill="#E7736E"/>
<path d="M329.173 361.793C336.426 372.567 345.92 408.7 332.686 416.861C323.657 419.993 325.819 407.7 315.761 399.289C305.704 390.878 292.867 387.834 292.625 382.504C292.382 377.173 303.248 378.997 304.094 375.431C304.94 371.865 295.97 365.219 298.955 362.16C301.94 359.102 309.858 367.006 313.556 364.116C317.255 361.227 308.079 352.272 312.66 348.838C317.24 345.405 321.931 351.037 329.173 361.793Z" fill="#CFC6D2"/>
<path d="M349.748 439.242C339.621 448.907 341.75 459.952 340.025 471.205C352.556 466.881 356.756 467.675 367.903 459.34C376.821 452.673 380.918 432.037 380.945 423.988C373.599 427.084 359.875 429.577 349.748 439.242Z" fill="#E9A59C"/>
<path d="M308.669 445.87C320.777 458.967 317.19 472.843 318.488 487.291C302.898 480.794 297.493 481.469 283.981 469.983C273.172 460.793 269.605 434.226 270.212 423.988C279.307 428.51 296.56 432.773 308.669 445.87Z" fill="#E9A59C"/>
<path fill-rule="evenodd" clip-rule="evenodd" d="M334.042 423.551C332.598 423.655 331.512 424.909 331.616 426.352C332.452 438.004 330.385 448.177 327.996 458.963C327.863 459.563 327.729 460.166 327.595 460.771C325.325 470.977 322.917 481.805 322.84 494.575C322.832 496.022 323.998 497.203 325.445 497.211C326.892 497.22 328.072 496.054 328.08 494.607C328.154 482.412 330.45 472.08 332.732 461.812C332.859 461.24 332.986 460.668 333.113 460.096C335.502 449.303 337.739 438.465 336.843 425.977C336.739 424.534 335.485 423.448 334.042 423.551Z" fill="#E9A59C"/>
<path d="M24.3391 286.187C33.2028 298.594 51.6181 289.145 58.3283 284.09C58.3283 284.09 59.6306 289.227 59.3097 303.968C59.217 308.222 61.3306 315.082 70.4026 314.144C81.7426 312.973 86.1688 304.557 90.4714 301.814C94.7741 299.07 100.367 302.029 106.114 297.898C110.712 294.593 109.199 286.143 107.867 282.331C111.985 288.095 120.498 286.862 131.838 285.69C143.178 284.518 147.573 277.521 149.141 270.462C150.709 263.403 145.332 250.518 136.819 251.751C128.307 252.984 126.955 250.118 125.603 247.251C124.251 244.384 131.381 241.702 128.801 230.297C126.22 218.891 117.831 214.453 109.38 212.85C102.619 211.568 97.9373 218.748 96.4413 222.499C95.1511 216.796 84.089 205.206 71.3662 204.929C58.6434 204.652 59.8411 214.609 56.9519 217.383C54.0628 220.157 46.9947 220.004 46.8403 227.093C46.7168 232.765 53.1883 238.577 56.4559 240.067C49.8692 239.451 32.5819 237.884 29.5041 243.736C25.0779 252.152 30.5824 259.365 29.074 263.592C27.5654 267.819 16.1009 274.655 24.3391 286.187Z" fill="#E39F52"/>
<path d="M80.5206 244.958C86.7006 243.231 93.224 247.246 95.0911 253.926C96.9582 260.606 93.462 267.421 87.282 269.149C81.102 270.876 74.5785 266.861 72.7114 260.181C70.8443 253.501 74.3406 246.685 80.5206 244.958Z" fill="#FEF2E6"/>
<path d="M266.344 336.752C280.671 341.975 290.517 323.769 293.193 315.805C293.193 315.805 297.172 319.306 305.242 331.646C307.571 335.207 313.193 339.67 320.146 333.768C328.837 326.389 327.729 316.946 329.727 312.25C331.724 307.554 338.011 306.833 340.415 300.176C342.339 294.851 336.313 288.736 333.06 286.345C339.715 288.771 346.039 282.941 354.73 275.562C363.421 268.184 363.09 259.928 360.392 253.219C357.694 246.51 345.974 238.922 339.65 244.752C333.326 250.583 330.59 248.982 327.854 247.382C325.118 245.782 329.482 239.539 320.905 231.59C312.329 223.642 302.899 224.724 295.023 228.18C288.721 230.945 288.919 239.515 289.806 243.454C285.518 239.48 269.84 236.175 259.19 243.14C248.539 250.105 255.157 257.64 254.342 261.562C253.528 265.484 247.611 269.354 251.492 275.289C254.597 280.037 263.221 281.171 266.759 280.553C260.977 283.768 245.833 292.251 246.603 298.818C247.71 308.261 256.329 311.099 257.475 315.438C258.621 319.778 253.029 331.898 266.344 336.752Z" fill="#E7736E"/>
<path d="M289.373 270.981C293.494 266.062 301.144 265.685 306.461 270.139C311.778 274.593 312.748 282.192 308.627 287.111C304.507 292.03 296.856 292.406 291.539 287.952C286.222 283.498 285.252 275.9 289.373 270.981Z" fill="#FEF2E6"/>
<path fill-rule="evenodd" clip-rule="evenodd" d="M193.429 207.009C191.976 207.124 190.892 208.393 191.009 209.841C191.53 216.336 191.869 222.057 192.19 227.468C192.774 237.317 193.297 246.139 194.745 256.724C194.942 258.164 196.273 259.172 197.717 258.976C199.161 258.779 200.172 257.453 199.975 256.013C198.552 245.608 198.05 237.119 197.477 227.424C197.156 221.986 196.812 216.169 196.27 209.421C196.154 207.973 194.882 206.893 193.429 207.009Z" fill="#E9A59C"/>
<path fill-rule="evenodd" clip-rule="evenodd" d="M165.836 227.105C164.487 227.509 163.71 228.969 164.101 230.364C166.173 237.754 167.806 242.902 169.262 247.488C171.901 255.804 173.954 262.273 176.967 276.916C177.26 278.337 178.611 279.244 179.985 278.942C181.359 278.639 182.236 277.242 181.944 275.821C178.879 260.929 176.711 254.086 174.017 245.584C172.567 241.008 170.964 235.951 168.988 228.899C168.597 227.504 167.186 226.7 165.836 227.105Z" fill="#E9A59C"/>
<path fill-rule="evenodd" clip-rule="evenodd" d="M225.654 215C224.358 215 223.308 216.184 223.308 217.645C223.308 226.458 222.821 232.318 222.163 239.367C222.107 239.961 222.051 240.564 221.993 241.176C221.363 247.873 220.613 255.844 220.004 268.208C219.932 269.667 220.922 270.915 222.216 270.996C223.51 271.077 224.617 269.96 224.689 268.502C225.291 256.272 226.031 248.411 226.66 241.731C226.717 241.119 226.774 240.516 226.829 239.921C227.494 232.801 228 226.729 228 217.645C228 216.184 226.95 215 225.654 215Z" fill="#E9A59C"/>
<path d="M172.764 209.93C174.012 215.504 169.859 221.179 163.489 222.605C157.118 224.031 150.942 220.669 149.695 215.095C148.447 209.52 152.599 203.846 158.97 202.42C165.34 200.994 171.516 204.356 172.764 209.93Z" fill="#E39F52"/>
<path d="M205 190C205 196.627 199.851 202 193.5 202C187.149 202 182 196.627 182 190C182 183.373 187.149 178 193.5 178C199.851 178 205 183.373 205 190Z" fill="#E39F52"/>
<path d="M241.481 202.055C238.919 207.572 232.042 209.815 226.122 207.065C220.201 204.316 217.478 197.614 220.041 192.097C222.603 186.58 229.48 184.336 235.401 187.086C241.321 189.836 244.044 196.537 241.481 202.055Z" fill="#E39F52"/>
<path fill-rule="evenodd" clip-rule="evenodd" d="M99.8834 354.087C101.232 353.719 102.613 354.554 102.968 355.952C104.844 363.341 105.188 373.06 104.919 381.798C104.649 390.577 103.749 398.643 103.011 402.85C102.761 404.273 101.447 405.216 100.074 404.957C98.702 404.699 97.7918 403.336 98.0413 401.914C98.7275 398.001 99.6073 390.197 99.8711 381.631C100.136 373.023 99.7683 363.92 98.0838 357.285C97.7288 355.887 98.5345 354.455 99.8834 354.087Z" fill="#CFC6D2"/>
<path d="M118.794 354.684C110.641 362.036 112.065 370.741 110.462 379.524C120.381 376.412 123.656 377.128 132.579 370.842C139.717 365.814 143.387 349.729 143.587 343.42C137.76 345.684 126.947 347.333 118.794 354.684Z" fill="#CFC6D2"/>
<path d="M85.0901 366.148C94.761 374.868 93.0725 385.194 94.9737 395.612C83.2081 391.921 79.3232 392.77 68.7388 385.314C60.2712 379.349 55.9178 360.27 55.6808 352.786C62.5925 355.471 75.4192 357.427 85.0901 366.148Z" fill="#CFC6D2"/>
<path d="M105.039 331.155C106.696 336.622 102.658 342.684 96.0201 344.696C89.3823 346.708 82.658 343.908 81.001 338.441C79.344 332.975 83.3818 326.912 90.0196 324.9C96.6574 322.888 103.382 325.689 105.039 331.155Z" fill="#E7736E"/>
<path fill-rule="evenodd" clip-rule="evenodd" d="M124.393 137C123.047 137.027 121.976 138.212 122 139.648C122.551 171.932 124.977 188.614 126.223 193.132C126.603 194.51 127.958 195.299 129.249 194.894C130.541 194.488 131.28 193.043 130.9 191.665C129.855 187.872 127.425 171.8 126.875 139.553C126.851 138.117 125.739 136.974 124.393 137Z" fill="#E9A59C"/>
<path d="M88.7941 139C106.441 147.25 108.647 163 116 177.25C97.6176 177.25 92.4706 180.25 74.0882 174.25C59.3824 169.45 44.6765 143.75 41 133C52.0294 133.75 71.1471 130.75 88.7941 139Z" fill="#E9A59C"/>
<path d="M161 91.3939C161 100.242 158.756 129 125.839 129C94.419 129 89.6626 105.754 86.1898 94.3434C81.7012 79.596 84.6936 56 89.9303 56C95.167 56 96.6632 84.0202 101.9 84.0202C107.137 84.0202 103.396 56 109.381 56C115.366 56 116.114 84.0202 121.351 84.0202C126.587 84.0202 131.076 58.2121 136.313 58.2121C141.549 58.2121 138.557 91.3939 142.297 91.3939C146.038 91.3939 153.519 70.0101 157.259 70.0101C161 70.0101 161 84.716 161 91.3934V91.3939Z" fill="#E39F52"/>
<path d="M301.199 86.6015C310.828 95.4786 328.563 128.7 317.469 139.779C309.334 144.949 308.594 132.393 296.761 126.485C284.928 120.576 271.615 120.576 270.136 115.406C268.657 110.236 279.75 109.497 279.75 105.804C279.75 102.112 269.396 97.6801 271.615 93.9872C273.834 90.2943 283.448 96.2029 286.407 92.51C289.365 88.8171 278.271 82.17 281.969 77.7385C285.667 73.307 291.584 77.7384 301.199 86.6015Z" fill="#CFC6D2"/>
<path d="M301.937 172.887C313.581 183.386 311.548 195.818 313.837 208.361C299.671 203.917 294.994 204.939 282.251 195.963C272.056 188.781 266.815 165.81 266.529 156.8C274.851 160.033 290.294 162.388 301.937 172.887Z" fill="#E9A59C"/>
<path d="M353.056 174.25C338.221 187.627 340.811 203.467 337.895 219.449C355.943 213.787 361.903 215.089 378.14 203.652C391.129 194.502 397.808 165.234 398.171 153.753C387.568 157.873 367.892 160.873 353.056 174.25Z" fill="#E9A59C"/>
<path d="M337.61 143.964C329.964 155.334 334.323 165.443 335.042 176.563C346.11 169.792 350.292 169.667 359.193 159.354C366.314 151.104 365.887 130.517 364.219 122.817C357.849 127.323 345.255 132.594 337.61 143.964Z" fill="#E9A59C"/>
<path fill-rule="evenodd" clip-rule="evenodd" d="M319.922 147.121C318.476 147.555 317.673 149.024 318.127 150.403C322.251 162.921 322.643 174.572 322.837 186.932C322.847 187.619 322.857 188.307 322.868 188.998C323.04 200.701 323.222 213.08 326.582 226.97C326.922 228.379 328.396 229.257 329.872 228.932C331.349 228.607 332.27 227.202 331.929 225.793C328.705 212.463 328.528 200.591 328.354 188.826C328.344 188.169 328.334 187.511 328.324 186.854C328.131 174.487 327.749 162.15 323.363 148.834C322.908 147.454 321.368 146.688 319.922 147.121Z" fill="#E9A59C"/>
<path d="M-14.1725 124.935C-21.4257 135.708 -30.9197 171.842 -17.6856 180.003C-8.65706 183.134 -10.8189 170.842 -0.761301 162.431C9.2963 154.019 22.1331 150.975 22.3756 145.645C22.6182 140.315 11.7517 142.138 10.9061 138.573C10.0606 135.007 19.0301 128.36 16.0451 125.302C13.06 122.243 5.14187 130.147 1.44368 127.258C-2.25452 124.368 6.92083 115.413 2.34036 111.98C-2.2401 108.547 -6.93081 114.178 -14.1725 124.935Z" fill="#CFC6D2"/>
<path d="M6.33164 209.012C-5.77649 222.109 -2.18964 235.985 -3.48792 250.432C12.1026 243.935 17.5076 244.61 31.019 233.124C41.8282 223.935 45.395 197.368 44.788 187.13C35.6935 191.652 18.4398 195.914 6.33164 209.012Z" fill="#E7736E"/>
<path fill-rule="evenodd" clip-rule="evenodd" d="M-19.0415 186.693C-17.5981 186.796 -16.5121 188.051 -16.6157 189.494C-17.4523 201.145 -15.3845 211.319 -12.9962 222.104C-12.8633 222.705 -12.7293 223.307 -12.5948 223.912C-10.325 234.119 -7.91725 244.946 -7.84019 257.717C-7.83146 259.164 -8.99743 260.344 -10.4445 260.353C-11.8915 260.361 -13.0716 259.195 -13.0803 257.748C-13.1539 245.553 -15.4498 235.222 -17.7317 224.953C-17.8588 224.381 -17.9859 223.809 -18.1125 223.237C-20.5022 212.445 -22.7391 201.606 -21.8425 189.119C-21.7389 187.675 -20.4848 186.589 -19.0415 186.693Z" fill="#E7736E"/>
<path d="M290.661 49.3281C281.797 61.7357 263.382 52.2864 256.672 47.2308C256.672 47.2308 255.369 52.3682 255.69 67.1095C255.783 71.3631 253.669 78.2231 244.597 77.2857C233.257 76.114 228.831 67.6984 224.529 64.9548C220.226 62.2111 214.633 65.1702 208.886 61.0394C204.288 57.7347 205.801 49.2844 207.133 45.4723C203.015 51.2366 194.502 50.0033 183.162 48.8313C171.822 47.6592 167.427 40.6622 165.859 33.6031C164.291 26.5439 169.668 13.659 178.181 14.8923C186.693 16.1256 188.045 13.2588 189.397 10.3921C190.749 7.52535 183.619 4.84328 186.199 -6.56216C188.78 -17.9676 197.169 -22.4062 205.62 -24.0089C212.381 -25.291 217.063 -18.1105 218.559 -14.36C219.849 -20.0627 230.911 -31.6528 243.634 -31.9298C256.357 -32.2068 255.159 -22.2502 258.048 -19.4757C260.937 -16.7013 268.005 -16.8552 268.16 -9.7653C268.283 -4.09337 261.812 1.71827 258.544 3.20807C265.131 2.59178 282.418 1.02525 285.496 6.87722C289.922 15.2928 284.418 22.506 285.926 26.7329C287.435 30.9606 298.899 37.7958 290.661 49.3281Z" fill="#E9A59C"/>
<path d="M234.479 8.09922C228.299 6.37188 221.776 10.3869 219.909 17.0669C218.042 23.747 221.538 30.5625 227.718 32.2899C233.898 34.0172 240.421 30.0022 242.289 23.3222C244.156 16.6421 240.659 9.82656 234.479 8.09922Z" fill="#FEF2E6"/>
<path d="M48.6555 99.8933C34.3293 105.116 24.4828 86.9098 21.8066 78.9459C21.8066 78.9459 17.8276 82.4469 9.75764 94.7872C7.42899 98.3481 1.80704 102.811 -5.14569 96.9088C-13.8366 89.5306 -12.7292 80.0868 -14.7268 75.3911C-16.7245 70.6953 -23.0106 69.9738 -25.4154 63.3172C-27.3392 57.9919 -21.3133 51.8775 -18.0598 49.486C-24.7151 51.9124 -31.0392 46.082 -39.7299 38.7037C-48.4207 31.3253 -48.0899 23.0689 -45.3919 16.3599C-42.694 9.65086 -30.974 2.06314 -24.6499 7.8935C-18.3258 13.7239 -15.5899 12.1237 -12.8539 10.5235C-10.118 8.92336 -14.4825 2.67985 -5.90552 -5.26862C2.6714 -13.2171 12.1006 -12.1349 19.9772 -8.67854C26.2785 -5.9135 26.0806 2.65637 25.1939 6.59568C29.4824 2.62143 45.1597 -0.683697 55.8102 6.28131C66.4608 13.2463 59.8434 20.7816 60.6578 24.7035C61.4721 28.6254 67.389 32.4948 63.5077 38.4299C60.4026 43.1781 51.779 44.3126 48.2414 43.6939C54.0227 46.9097 69.1672 55.3919 68.3972 61.9589C67.2898 71.4027 58.6712 74.24 57.5254 78.5793C56.3795 82.9193 61.9709 95.0392 48.6555 99.8933Z" fill="#CFC6D2"/>
<path d="M25.6271 34.1221C21.5063 29.2031 13.8556 28.8264 8.53867 33.2805C3.22173 37.7347 2.252 45.333 6.37271 50.252C10.4934 55.1709 18.1442 55.5476 23.4611 51.0935C28.778 46.6393 29.7478 39.041 25.6271 34.1221Z" fill="#FEF2E6"/>
<path fill-rule="evenodd" clip-rule="evenodd" d="M370.841 55.0085C372.132 55.1244 373.096 56.3926 372.992 57.8411C372.529 64.3356 372.228 70.057 371.942 75.4682C371.423 85.3174 370.958 94.139 369.671 104.724C369.496 106.164 368.313 107.172 367.029 106.976C365.746 106.779 364.847 105.453 365.022 104.013C366.287 93.6078 366.733 85.1188 367.242 75.4237C367.528 69.986 367.834 64.1689 368.315 57.4214C368.419 55.9729 369.549 54.8926 370.841 55.0085Z" fill="#E39F52"/>
<path fill-rule="evenodd" clip-rule="evenodd" d="M399.062 75.1047C400.486 75.5093 401.306 76.9687 400.893 78.3643C398.707 85.7542 396.982 90.9019 395.446 95.4879C392.66 103.804 390.493 110.273 387.312 124.916C387.003 126.337 385.577 127.244 384.127 126.942C382.676 126.639 381.751 125.242 382.059 123.821C385.295 108.929 387.583 102.086 390.427 93.584C391.957 89.0079 393.649 83.9508 395.735 76.8992C396.148 75.5035 397.637 74.7001 399.062 75.1047Z" fill="#E39F52"/>
<path fill-rule="evenodd" clip-rule="evenodd" d="M338.639 63C340.097 63 341.279 64.163 341.279 65.5976C341.279 74.2535 341.826 80.0092 342.567 86.9321C342.629 87.5155 342.693 88.107 342.758 88.709C343.467 95.286 344.31 103.115 344.996 115.258C345.077 116.691 343.962 117.916 342.507 117.996C341.051 118.076 339.806 116.979 339.725 115.546C339.047 103.535 338.215 95.8147 337.508 89.2537C337.443 88.6522 337.379 88.0604 337.317 87.476C336.569 80.483 336 74.5199 336 65.5976C336 64.163 337.182 63 338.639 63Z" fill="#E39F52"/>
<path d="M391.671 57.9634C390.424 63.5375 394.576 69.2123 400.947 70.6383C407.317 72.0644 413.493 68.7017 414.741 63.1276C415.988 57.5535 411.836 51.8787 405.465 50.4527C399.095 49.0266 392.919 52.3893 391.671 57.9634Z" fill="#E7736E"/>
<path d="M360 37C360 43.6274 365.149 49 371.5 49C377.851 49 383 43.6274 383 37C383 30.3726 377.851 25 371.5 25C365.149 25 360 30.3726 360 37Z" fill="#E7736E"/>
<path d="M322.954 50.0879C325.516 55.6051 332.393 57.8486 338.314 55.0988C344.234 52.3491 346.957 45.6474 344.395 40.1302C341.832 34.6131 334.955 32.3696 329.035 35.1193C323.114 37.8691 320.391 44.5707 322.954 50.0879Z" fill="#E7736E"/>
<path fill-rule="evenodd" clip-rule="evenodd" d="M121.571 -28.9915C123.024 -28.8756 124.108 -27.6074 123.991 -26.1589C123.47 -19.6644 123.131 -13.943 122.81 -8.53182C122.226 1.31744 121.703 10.139 120.255 20.7241C120.058 22.1639 118.727 23.1719 117.283 22.9756C115.839 22.7792 114.828 21.4529 115.025 20.0131C116.448 9.60777 116.95 1.11875 117.523 -8.57629C117.844 -14.014 118.188 -19.8311 118.73 -26.5786C118.846 -28.0271 120.118 -29.1074 121.571 -28.9915Z" fill="#E39F52"/>
<path fill-rule="evenodd" clip-rule="evenodd" d="M149.164 -8.89527C150.513 -8.49068 151.29 -7.0313 150.899 -5.63565C148.827 1.75418 147.194 6.90193 145.738 11.4879C143.099 19.8045 141.046 26.2735 138.033 40.9162C137.74 42.3374 136.389 43.2443 135.015 42.9418C133.641 42.6393 132.764 41.2419 133.056 39.8206C136.121 24.9289 138.289 18.0864 140.983 9.58403C142.433 5.00785 144.036 -0.0491629 146.012 -7.10081C146.403 -8.49646 147.814 -9.29987 149.164 -8.89527Z" fill="#E39F52"/>
<path fill-rule="evenodd" clip-rule="evenodd" d="M89.3462 -22C90.6419 -22 91.6923 -20.8159 91.6923 -19.3551C91.6923 -10.5419 92.1789 -4.68157 92.8371 2.36726C92.8925 2.96124 92.9492 3.56351 93.0069 4.17646C93.637 10.873 94.387 18.8442 94.9963 31.2083C95.0682 32.6668 94.0777 33.9148 92.7839 33.9959C91.4902 34.0769 90.3831 32.9602 90.3112 31.5018C89.7085 19.2722 88.9689 11.4114 88.3404 4.73103C88.2828 4.11859 88.2261 3.51608 88.1705 2.92102C87.5057 -4.19917 87 -10.2706 87 -19.3551C87 -20.8158 88.0504 -22 89.3462 -22Z" fill="#E39F52"/>
<path fill-rule="evenodd" clip-rule="evenodd" d="M215.117 117.087C213.768 116.719 212.387 117.554 212.032 118.952C210.156 126.341 209.812 136.06 210.081 144.798C210.351 153.577 211.251 161.643 211.989 165.85C212.239 167.272 213.553 168.216 214.926 167.957C216.298 167.699 217.208 166.336 216.959 164.913C216.272 161.001 215.393 153.197 215.129 144.631C214.864 136.023 215.232 126.92 216.916 120.285C217.271 118.887 216.465 117.455 215.117 117.087Z" fill="#CFC6D2"/>
<path d="M196.206 117.825C204.359 125.177 202.935 133.882 204.538 142.665C194.619 139.553 191.344 140.269 182.421 133.983C175.283 128.955 171.612 112.87 171.413 106.561C177.24 108.825 188.053 110.474 196.206 117.825Z" fill="#CFC6D2"/>
<path d="M229.91 129.289C220.239 138.009 221.927 148.335 220.026 158.753C231.792 155.062 235.677 155.911 246.261 148.455C254.729 142.49 259.082 123.411 259.319 115.927C252.407 118.612 239.581 120.569 229.91 129.289Z" fill="#CFC6D2"/>
<path d="M209.961 94.2962C208.304 99.7627 212.342 105.825 218.98 107.837C225.618 109.849 232.342 107.049 233.999 101.583C235.656 96.1161 231.618 90.0536 224.98 88.0415C218.342 86.0294 211.618 88.8298 209.961 94.2962Z" fill="#E7736E"/>
</g>
<defs>
<clipPath id="clip0_19_1163">
<rect width="417" height="901" fill="white"/>
</clipPath>
</defs>
</svg>
