<svg width="182" height="189" viewBox="0 0 182 189" fill="none" xmlns="http://www.w3.org/2000/svg">
<path fill-rule="evenodd" clip-rule="evenodd" d="M104.576 169.892C107.63 176.855 117.586 174.131 121.378 172.351C121.378 172.351 121.488 174.992 119.82 182.153C119.339 184.22 119.668 187.784 124.191 188.256C128.254 188.68 130.958 186.913 133.042 185.552C133.858 185.019 134.579 184.548 135.249 184.295C136.316 183.892 137.392 184.075 138.546 184.271C139.966 184.513 141.503 184.774 143.285 183.987C145.867 182.845 145.994 178.566 145.735 176.569C147.08 179.636 150.998 180.039 156.219 180.575C156.506 180.604 156.796 180.634 157.089 180.665C162.744 181.255 165.606 178.29 167.094 175.006C168.583 171.722 167.279 164.882 162.998 164.612C158.718 164.342 158.352 162.804 157.986 161.266C157.853 160.708 158.263 160.277 158.834 159.674C159.838 158.617 161.341 157.034 161.283 153.32C161.193 147.489 157.554 144.463 153.593 142.815C150.425 141.497 147.404 144.521 146.29 146.198C146.245 143.283 142.034 136.493 135.853 135.054C131.377 134.012 129.914 136.337 128.804 138.101C128.381 138.773 128.01 139.363 127.542 139.655C127.006 139.99 126.295 140.139 125.549 140.295C123.937 140.632 122.16 141.004 121.612 143.358C120.971 146.114 123.534 149.613 124.976 150.675C121.824 149.699 113.548 147.163 111.446 149.704C109.584 151.954 109.609 154.369 109.628 156.337C109.64 157.564 109.651 158.617 109.202 159.35C108.91 159.826 108.3 160.317 107.592 160.888C105.461 162.604 102.445 165.034 104.576 169.892ZM136.219 155.528C139.412 155.318 142.184 157.946 142.411 161.397C142.637 164.849 140.233 167.817 137.04 168.026C133.847 168.236 131.075 165.608 130.848 162.157C130.621 158.705 133.026 155.738 136.219 155.528ZM159.231 72.9221C166.99 76.0958 184.487 87.0633 178.371 100.993C174.104 110.711 166.443 109.562 161.028 108.749C159.23 108.479 157.679 108.246 156.583 108.462C154.896 108.793 153.359 110.236 151.569 111.915C148.698 114.61 145.176 117.916 139.34 118.223C132.752 118.57 125.276 102.95 122.443 96.9879C122.833 100.55 121.152 109.063 116.226 111.851C112.019 114.233 109.064 112.12 106.385 110.205L106.385 110.205L106.385 110.204C105.144 109.317 103.962 108.472 102.742 108.136C101.679 107.843 100.306 108.096 98.7443 108.383C94.6438 109.138 89.2386 110.133 84.7101 102.132C78.4564 91.0825 82.7494 75.6849 86.9805 71.6692C83.0017 72.3001 74.4565 71.9494 72.1064 65.4988C69.1687 57.4355 68.6941 47.9783 77.1562 39.947C82.5472 34.8303 86.9135 34.8991 89.8298 34.945C91.4911 34.9712 92.6819 34.99 93.3236 34.0385C95.0917 31.4168 96.8598 28.7951 91.4592 22.1258C86.0586 15.4566 94.3625 4.27285 101.215 2.0156C108.067 -0.241647 116.308 -0.0431918 123.099 9.08135C123.451 9.55475 123.8 10.0215 124.144 10.482L124.145 10.4837C130.428 18.8982 135.143 25.2113 132.449 31.3462C135.038 28.2599 141.511 22.6511 146.69 24.907C150.263 26.4632 151.96 29.0808 153.528 31.499C154.802 33.4627 155.99 35.295 158.028 36.3208C159.308 36.9652 160.978 37.3887 162.869 37.8681C167.696 39.0917 173.96 40.6797 178.839 47.2358C184.271 54.5356 179.468 59.8477 175.774 61.9385C162.972 69.1844 159.231 72.9221 159.231 72.9221ZM114.614 56.7926C109.839 61.8015 109.725 69.443 114.359 73.8602C118.993 78.2774 126.62 77.7977 131.395 72.7887C136.17 67.7797 136.284 60.1383 131.65 55.7211C127.016 51.3039 119.388 51.7836 114.614 56.7926ZM14.4813 20.8959C11.6451 17.8123 6.05759 9.13385 11.7831 4.12996C15.7776 0.638915 19.0001 2.78638 21.2773 4.30395C22.0338 4.80812 22.686 5.24275 23.2276 5.37805C24.0613 5.58633 25.0631 5.26005 26.2296 4.88013C28.1012 4.27057 30.3968 3.52289 33.1026 4.62329C36.1569 5.86543 36.2224 14.5212 36.2377 17.8201C36.8178 16.1258 39.3864 12.6307 42.2074 12.4155C44.617 12.2316 45.5053 13.815 46.3106 15.2506C46.6837 15.9157 47.039 16.5491 47.5195 16.9602C47.9382 17.3184 48.613 17.4956 49.3809 17.6973C51.3965 18.2267 54.0535 18.9245 54.4031 23.5065C54.886 29.8341 49.6735 35.8892 46.9062 36.8076C48.8405 37.3671 52.6323 39.3406 52.3257 42.7584C51.9424 47.0307 50.1487 51.4105 44.6142 53.2472C41.0882 54.4174 39.1273 53.4589 37.8175 52.8188C37.0714 52.4541 36.5365 52.1927 36.0441 52.487C34.6873 53.2977 33.3305 54.1084 34.3577 58.2729C35.3848 62.4375 29.2524 65.7342 25.6726 65.3002C22.0928 64.8663 18.406 63.0261 17.2714 57.4554L17.2265 57.2355C17.1827 57.0211 17.1391 56.8089 17.096 56.5988L17.0959 56.5986L17.0959 56.5984C16.04 51.4569 15.2479 47.5993 17.7696 45.3956C15.9426 46.2422 11.8227 47.4053 9.95842 45.2846C8.6724 43.8217 8.4603 42.2769 8.26433 40.8496C8.10521 39.6907 7.95673 38.6093 7.25252 37.7123C6.81029 37.1491 6.14464 36.6028 5.3911 35.9845L5.39069 35.9841L5.39051 35.984C3.46643 34.4052 0.969424 32.3564 0.154299 28.3538C-0.753279 23.8972 2.54816 22.5138 4.6637 22.3523C11.9952 21.7928 14.4813 20.8959 14.4813 20.8959ZM31.2436 37.6698C34.4678 36.4175 36.1423 32.9842 34.9837 30.0014C33.8251 27.0186 30.2722 25.6158 27.048 26.8681C23.8239 28.1205 22.1494 31.5538 23.308 34.5365C24.4666 37.5193 28.0195 38.9222 31.2436 37.6698Z" fill="#FEF2E6"/>
</svg>
