<svg width="182" height="189" viewBox="0 0 182 189" fill="none" xmlns="http://www.w3.org/2000/svg">
<path fill-rule="evenodd" clip-rule="evenodd" d="M76.8403 19.2435C73.786 12.2799 63.8304 15.0044 60.0376 16.7841C60.0376 16.7841 59.9285 14.1434 61.5956 6.98212C62.0767 4.91568 61.7482 1.35121 57.2247 0.87908C53.162 0.45504 50.458 2.22181 48.3745 3.5832C47.5582 4.11656 46.8371 4.5877 46.1669 4.8405C45.0999 5.24296 44.0238 5.05996 42.8706 4.86383C41.4503 4.6223 39.9131 4.36087 38.1316 5.14841C35.5491 6.29006 35.4217 10.5691 35.6808 12.566C34.3357 9.49895 30.4182 9.09659 25.1966 8.56028C24.9105 8.5309 24.6205 8.50111 24.3268 8.47046C18.6724 7.88043 15.8104 10.8448 14.3218 14.1292C12.8332 17.4136 14.1368 24.2528 18.4177 24.5233C22.6986 24.7937 23.0646 26.3313 23.4306 27.8689C23.5634 28.4269 23.1535 28.8586 22.5817 29.4608C21.5779 30.518 20.075 32.1008 20.1326 35.8154C20.2232 41.646 23.8626 44.6718 27.8227 46.32C30.9908 47.6385 34.0116 44.6139 35.126 42.9369C35.1713 45.8522 39.3823 52.642 45.563 54.0809C50.0387 55.1229 51.5019 52.798 52.6119 51.0343C53.0348 50.3623 53.4064 49.7719 53.8738 49.48C54.4103 49.145 55.1211 48.9963 55.8675 48.84C57.4786 48.5028 59.2557 48.1309 59.8037 45.7772C60.4451 43.0217 57.8824 39.5223 56.4403 38.4604C59.5917 39.4361 67.8679 41.9721 69.9696 39.4315C71.8316 37.1808 71.8075 34.7667 71.7879 32.7984C71.7757 31.5717 71.7652 30.5181 72.2142 29.7854C72.5058 29.3094 73.1162 28.8178 73.8242 28.2475C75.9554 26.5309 78.9712 24.1018 76.8403 19.2435ZM45.1972 33.6074C42.0042 33.8172 39.232 31.1893 39.0053 27.7379C38.7786 24.2865 41.1833 21.3185 44.3763 21.1088C47.5693 20.8991 50.3416 23.527 50.5683 26.9784C50.795 30.4298 48.3903 33.3977 45.1972 33.6074ZM22.1846 116.213C14.4265 113.04 -3.07057 102.072 3.04506 88.1422C7.31176 78.4238 14.9735 79.5737 20.3878 80.3862C22.1865 80.6562 23.7372 80.8889 24.833 80.6736C26.52 80.3421 28.057 78.8996 29.8467 77.2198C32.7181 74.5248 36.24 71.2192 42.076 70.9119C48.6636 70.565 56.1406 86.1857 58.9727 92.1473C58.5829 88.5857 60.2638 80.0722 65.1897 77.2842C69.3975 74.9027 72.3523 77.0153 75.0311 78.9307L75.0312 78.9307L75.0314 78.9309C76.2724 79.8182 77.4543 80.6632 78.6741 80.9993C79.7369 81.2921 81.1097 81.0394 82.6718 80.7519C86.7723 79.9971 92.1774 79.0022 96.7059 87.0034C102.96 98.0528 98.6667 113.45 94.4356 117.466C98.4144 116.835 106.96 117.186 109.31 123.637C112.247 131.7 112.722 141.157 104.26 149.188C98.8688 154.305 94.5026 154.236 91.5862 154.19C89.9249 154.164 88.7341 154.145 88.0924 155.097C86.3243 157.718 84.5562 160.34 89.9569 167.009C95.3575 173.679 87.0536 184.862 80.2013 187.12C73.3491 189.377 65.1076 189.178 58.3171 180.054C57.9647 179.581 57.6162 179.114 57.2723 178.653L57.271 178.652C50.9876 170.237 46.2735 163.924 48.9672 157.789C46.3781 160.875 39.9052 166.484 34.7261 164.228C31.1534 162.672 29.4559 160.054 27.8878 157.636C26.6143 155.673 25.4261 153.84 23.3882 152.814C22.1081 152.17 20.4377 151.747 18.5467 151.267C13.7199 150.044 7.45583 148.456 2.57693 141.899C-2.85533 134.6 1.94783 129.288 5.64203 127.197C18.4444 119.951 22.1846 116.213 22.1846 116.213ZM66.8023 132.343C71.577 127.334 71.691 119.692 67.057 115.275C62.4229 110.858 54.7957 111.338 50.0211 116.347C45.2465 121.356 45.1325 128.997 49.7665 133.414C54.4005 137.831 62.0277 137.352 66.8023 132.343ZM166.935 168.239C169.771 171.323 175.358 180.001 169.633 185.005C165.638 188.496 162.416 186.349 160.139 184.831C159.382 184.327 158.73 183.893 158.188 183.757C157.355 183.549 156.353 183.875 155.186 184.255C153.315 184.865 151.019 185.612 148.313 184.512C145.259 183.27 145.194 174.614 145.178 171.315C144.598 173.009 142.03 176.505 139.209 176.72C136.799 176.904 135.911 175.32 135.105 173.885C134.732 173.22 134.377 172.586 133.897 172.175C133.478 171.817 132.803 171.64 132.035 171.438C130.02 170.909 127.363 170.211 127.013 165.629C126.53 159.301 131.743 153.246 134.51 152.328C132.576 151.768 128.784 149.795 129.09 146.377C129.474 142.105 131.267 137.725 136.802 135.888C140.328 134.718 142.289 135.676 143.599 136.316C144.345 136.681 144.88 136.943 145.372 136.648C146.729 135.838 148.086 135.027 147.058 130.862C146.031 126.698 152.164 123.401 155.743 123.835C159.323 124.269 163.01 126.109 164.145 131.68L164.19 131.9C164.233 132.114 164.277 132.326 164.32 132.537L164.32 132.537L164.32 132.537C165.376 137.678 166.168 141.536 163.646 143.74C165.473 142.893 169.593 141.73 171.458 143.851C172.744 145.314 172.956 146.858 173.152 148.286C173.311 149.445 173.459 150.526 174.164 151.423C174.606 151.986 175.271 152.532 176.025 153.151L176.025 153.151L176.026 153.151C177.95 154.73 180.447 156.779 181.262 160.782C182.169 165.238 178.868 166.622 176.752 166.783C169.421 167.342 166.935 168.239 166.935 168.239ZM150.172 151.465C146.948 152.718 145.274 156.151 146.432 159.134C147.591 162.117 151.144 163.519 154.368 162.267C157.592 161.015 159.267 157.582 158.108 154.599C156.95 151.616 153.397 150.213 150.172 151.465Z" fill="#FEF2E6"/>
</svg>
